<svg xmlns="http://www.w3.org/2000/svg" viewBox="0 0 64 64">
  <!-- Background circle -->
  <circle cx="32" cy="32" r="30" fill="#0A192F" stroke="#7C3AED" stroke-width="2.5"/>
  
  <!-- Arena ring -->
  <circle cx="32" cy="32" r="22" fill="none" stroke="#7C3AED" stroke-width="1.5" opacity="0.5"/>
  
  <!-- Left B -->
  <path d="M 16 20 L 16 44 L 20 44 L 20 36 L 24 36 L 24 40 L 28 40 L 28 44 L 32 44 L 32 20 L 28 20 L 28 28 L 24 28 L 24 24 L 20 24 L 20 20 Z" fill="#7C3AED"/>
  
  <!-- Right B (mirrored) -->
  <path d="M 32 20 L 32 44 L 36 44 L 36 40 L 40 40 L 40 36 L 44 36 L 44 44 L 48 44 L 48 20 L 44 20 L 44 24 L 40 24 L 40 28 L 36 28 L 36 20 Z" fill="#00F5A0"/>
  
  <!-- Lightning accent -->
  <path d="M 28 14 L 26 26 L 30 26 L 32 38 L 36 26 L 32 26 Z" fill="#00F5A0" opacity="0.9"/>
</svg>

